<svg aria-hidden="true" style="position: absolute; width: 0; height: 0; overflow: hidden;" version="1.1" xmlns="http://www.w3.org/2000/svg" xmlns:xlink="http://www.w3.org/1999/xlink">
	<defs>
		<symbol id="icon-arrow-left" viewBox="0 0 21 32">
			<path d="M0.516 32c-0.151 0-0.303-0.065-0.406-0.196-0.175-0.224-0.141-0.547 0.083-0.726l19.038-15.080-19.035-15.077c-0.224-0.179-0.261-0.502-0.086-0.726 0.179-0.224 0.502-0.261 0.726-0.086l20.060 15.888-20.060 15.892c-0.096 0.076-0.206 0.11-0.32 0.11z"></path>
		</symbol>
		<symbol id="icon-magnet" viewBox="0 0 32 32">
			<path d="M15.571 0c0.997 0.13 2.003 0.26 2.965 0.581 5.549 1.864 8.982 5.644 10.057 11.392 0.754 4.031-0.26 7.725-2.696 11.011-0.182 0.251-0.156 0.381 0.052 0.59 1.873 1.855 3.745 3.719 5.609 5.592 0.78 0.78 0.676 1.959-0.208 2.558-0.642 0.442-1.509 0.338-2.115-0.26-1.803-1.795-3.598-3.589-5.401-5.384q-0.468-0.468-1.006-0.087c-2.289 1.63-4.82 2.584-7.638 2.705-4.673 0.208-8.557-1.465-11.652-4.942-1.985-2.219-3.104-4.864-3.468-7.82-0.026-0.208 0.017-0.425-0.069-0.624v-1.942c0.113-0.746 0.165-1.5 0.355-2.237 1.413-5.358 4.751-8.895 10.040-10.586 0.928-0.295 1.89-0.416 2.852-0.546h2.323zM3.286 14.331c-0.017 6.164 4.881 11.097 11.045 11.123 6.216 0.026 11.141-4.881 11.184-11.071 0.043-5.861-4.638-11.097-11.063-11.132-6.442-0.035-11.236 5.176-11.175 11.080z"></path>
		</symbol>
		<symbol id="icon-chat" viewBox="0 0 32 32">
			<path fill="#fff" style="fill: var(--color1, #fff)" d="M0.008 17.466c0-4.666 0-9.332 0-13.998 0.008-1.695 0.962-2.971 2.506-3.358 0.315-0.079 0.638-0.11 0.962-0.11 8.402 0 16.812 0 25.214 0 2.041 0 3.452 1.403 3.452 3.444 0 6.282 0 12.556 0 18.837 0 1.742-1.048 3.050-2.672 3.366-0.268 0.055-0.544 0.047-0.82 0.047-7.22 0-14.432 0-21.651 0-0.355 0-0.607 0.102-0.851 0.355-1.899 1.923-3.815 3.823-5.73 5.738-0.095 0.095-0.173 0.268-0.323 0.205s-0.087-0.244-0.087-0.378c0-4.713 0-9.427 0-14.148z"></path>
		</symbol>
		<symbol id="icon-phone" viewBox="0 0 32 32">
			<path fill="#fff" style="fill: var(--color1, #fff)" d="M16 0c-8.835 0-16 7.165-16 16s7.165 16 16 16 16-7.165 16-16-7.165-16-16-16zM15.541 8.366c0.079-0.023 0.158-0.032 0.241-0.051h1.169c0.218 0.032 0.436 0.060 0.654 0.097 1.54 0.292 2.843 1.020 3.942 2.129 0.826 0.835 1.442 1.795 1.776 2.926 0.107 0.362 0.162 0.728 0.218 1.099v1.108c-0.037 0.199-0.070 0.403-0.121 0.603-0.051 0.195-0.186 0.32-0.385 0.357-0.204 0.037-0.376-0.023-0.506-0.195-0.083-0.111-0.125-0.237-0.097-0.376 0.325-1.563-0.111-2.936-1.062-4.169-0.89-1.155-2.031-1.966-3.446-2.361-0.719-0.199-1.447-0.278-2.194-0.172-0.264 0.037-0.529-0.148-0.575-0.399-0.051-0.278 0.102-0.524 0.38-0.598zM19.038 13.426c-0.58-0.7-1.308-1.164-2.217-1.299-0.148-0.023-0.297-0.023-0.445-0.037 0 0.005 0 0.014 0 0.019-0.102 0-0.204 0-0.306 0-0.264-0.005-0.482-0.209-0.51-0.464-0.023-0.246 0.153-0.492 0.408-0.538 0.394-0.070 0.793-0.046 1.178 0.042 1.716 0.399 2.899 1.41 3.464 3.093 0.162 0.478 0.181 0.974 0.107 1.475-0.051 0.357-0.325 0.575-0.621 0.506-0.269-0.060-0.445-0.297-0.399-0.57 0.139-0.849-0.116-1.586-0.649-2.231zM23.736 21.389c-0.162 1.735-1.54 3.075-3.302 3.209-0.223 0.019-0.45 0-0.677 0-1.735-0.051-3.302-0.705-4.786-1.517-2.982-1.623-5.148-4.090-6.85-6.984-0.598-1.020-0.872-2.138-0.788-3.335 0.083-1.229 0.621-2.226 1.526-3.024 0.594-0.524 1.317-0.431 2.022-0.292 0.25 0.051 0.39 0.278 0.487 0.505 0.431 1.025 0.858 2.050 1.285 3.075 0.162 0.394 0.074 0.756-0.134 1.104-0.237 0.39-0.538 0.723-0.844 1.053-0.25 0.269-0.306 0.552-0.116 0.877 1.312 2.226 3.135 3.859 5.551 4.814 0.394 0.158 0.719 0.083 0.988-0.255 0.362-0.454 0.747-0.886 1.090-1.354 0.278-0.38 0.603-0.45 1.011-0.274 1.081 0.459 2.129 0.997 3.177 1.526 0.371 0.186 0.394 0.515 0.357 0.872z"></path>
		</symbol>
		<symbol id="icon-telegram" viewBox="0 0 32 32">
			<path fill="#a08070" style="fill: var(--color2, #a08070)" d="M14.627 0c0.919 0 1.833 0 2.752 0 0.506 0.076 1.012 0.122 1.507 0.227 6.435 1.391 10.624 5.236 12.579 11.52 0.297 0.954 0.419 1.949 0.541 2.938v2.624c-0.076 0.547-0.122 1.1-0.239 1.635-1.408 6.383-5.236 10.554-11.479 12.509-0.966 0.303-1.967 0.431-2.973 0.547h-2.624c-0.524-0.076-1.053-0.116-1.571-0.233-6.423-1.385-10.607-5.225-12.567-11.485-0.297-0.948-0.419-1.932-0.547-2.909 0-0.919 0-1.833 0-2.752 0.076-0.512 0.122-1.036 0.233-1.542 1.391-6.4 5.231-10.577 11.479-12.532 0.943-0.297 1.932-0.413 2.909-0.547zM20.463 24.425c0.553 0 0.884-0.297 1.012-0.908 0.716-3.404 1.425-6.801 2.135-10.205 0.215-1.041 0.436-2.077 0.652-3.119 0.14-0.675-0.367-1.123-1.018-0.908-0.116 0.041-0.233 0.087-0.349 0.128-4.625 1.745-9.257 3.485-13.882 5.231-0.838 0.314-1.676 0.628-2.513 0.948-0.454 0.175-0.593 0.593-0.308 0.908 0.111 0.122 0.256 0.175 0.407 0.221 1.233 0.413 2.473 0.82 3.7 1.251 0.303 0.105 0.535 0.081 0.809-0.093 3.124-1.99 6.26-3.974 9.396-5.952 0.081-0.052 0.157-0.099 0.244-0.14 0.105-0.052 0.204-0.047 0.285 0.041 0.087 0.099 0.087 0.215 0 0.314-0.099 0.116-0.215 0.227-0.332 0.332-2.362 2.159-4.719 4.317-7.087 6.464-0.308 0.279-0.471 0.582-0.471 0.995 0 0.279-0.058 0.559-0.087 0.838-0.087 0.849-0.18 1.699-0.268 2.543-0.012 0.105 0 0.209 0.105 0.273 0.111 0.070 0.221 0.058 0.326-0.012 0.070-0.047 0.128-0.105 0.192-0.163 0.675-0.634 1.35-1.268 2.025-1.908q0.343-0.326 0.716-0.052c1.204 0.89 2.415 1.78 3.619 2.676 0.221 0.163 0.442 0.314 0.704 0.291z"></path>
		</symbol>
		<symbol id="icon-whatsapp" viewBox="0 0 32 32">
			<path fill="#a08070" style="fill: var(--color2, #a08070)" d="M14.749 0c0.832 0 1.664 0 2.502 0 0.332 0.041 0.657 0.087 0.989 0.134 6.708 0.931 12.148 6.080 13.475 12.736 0.122 0.623 0.175 1.257 0.285 1.879v2.502c-0.035 0.244-0.076 0.495-0.105 0.739-0.768 6.54-5.748 12.102-12.154 13.597-0.82 0.192-1.658 0.285-2.49 0.413h-2.502c-0.425-0.058-0.844-0.111-1.268-0.175-6.458-0.995-11.776-6.022-13.143-12.416-0.151-0.716-0.227-1.437-0.343-2.159 0-0.832 0-1.664 0-2.502 0.058-0.425 0.111-0.844 0.175-1.268 0.972-6.417 6.045-11.788 12.393-13.132 0.721-0.151 1.46-0.233 2.188-0.349zM16.081 5.504c-2.956-0.006-5.655 1.152-7.668 3.293-3.089 3.287-3.747 8.099-1.647 12.084 0.14 0.262 0.157 0.495 0.076 0.768-0.419 1.495-0.82 2.991-1.228 4.486-0.023 0.093-0.052 0.18-0.070 0.273-0.029 0.14 0.041 0.198 0.175 0.175 0.105-0.017 0.204-0.047 0.303-0.076 1.559-0.407 3.124-0.815 4.684-1.228 0.186-0.047 0.355-0.064 0.541 0.035 1.972 0.995 4.044 1.361 6.243 1.059 5.696-0.78 9.722-6.068 8.948-11.788-0.704-5.225-5.097-9.082-10.356-9.094z"></path>
			<path fill="#a08070" style="fill: var(--color2, #a08070)" d="M15.924 7.232c4.55 0 8.25 3.258 8.815 7.645 0.617 4.759-2.81 9.193-7.575 9.798-1.955 0.25-3.793-0.134-5.504-1.111-0.273-0.157-0.524-0.198-0.826-0.116-0.844 0.239-1.693 0.448-2.537 0.669-0.32 0.081-0.349 0.047-0.262-0.279 0.227-0.844 0.454-1.687 0.692-2.531 0.070-0.25 0.035-0.454-0.105-0.675-3.235-5.207-0.349-11.968 5.655-13.242 0.582-0.122 1.169-0.192 1.641-0.169zM18.781 20.986c0.145 0 0.291 0.012 0.436 0 1.14-0.087 2.031-0.954 2.135-2.071 0.023-0.227 0.006-0.442-0.233-0.564-0.681-0.343-1.356-0.687-2.054-0.989-0.262-0.111-0.471-0.070-0.652 0.18-0.221 0.303-0.471 0.582-0.704 0.879-0.175 0.215-0.384 0.268-0.64 0.163-1.559-0.617-2.74-1.676-3.59-3.113-0.122-0.209-0.087-0.39 0.076-0.564 0.198-0.215 0.396-0.431 0.547-0.681 0.14-0.227 0.192-0.46 0.087-0.716-0.279-0.663-0.553-1.327-0.832-1.99-0.064-0.145-0.151-0.297-0.314-0.326-0.454-0.087-0.925-0.151-1.309 0.192-0.582 0.518-0.931 1.158-0.989 1.955-0.052 0.774 0.122 1.495 0.512 2.159 1.1 1.868 2.502 3.468 4.428 4.515 0.96 0.524 1.972 0.948 3.095 0.977z"></path>
		</symbol>
		<symbol id="icon-size" viewBox="0 0 32 32">
			<path d="M26.742 32h-21.446s-0.131-0.038-0.188-0.056c-3.023-0.545-5.108-3.042-5.108-6.103 0-6.554 0-13.108 0-19.681 0-0.338 0-0.657 0.056-0.995 0.432-2.892 3.023-5.164 5.953-5.164 6.667 0 13.333 0 20.019 0 1.559 0 2.892 0.582 4.038 1.615 1.089 0.995 1.69 2.235 1.934 3.662v21.446c-0.225 1.277-0.732 2.423-1.653 3.38-0.995 1.052-2.216 1.634-3.606 1.878zM16.038 2.178c-3.268 0-6.535 0-9.784 0-2.31 0-4.075 1.728-4.075 4.038 0 6.535 0 13.052 0 19.587 0 2.272 1.728 4.038 4 4.038 6.554 0 13.089 0 19.643 0 2.254 0 4-1.746 4-4 0-6.554 0-13.089 0-19.643 0-0.845-0.244-1.653-0.751-2.347-0.826-1.127-1.953-1.653-3.324-1.653-3.249 0-6.479 0-9.728 0z"></path>
			<path d="M7.512 9.258s0 0.188 0 0.319c0 1.127 0 2.235 0 3.361 0 0.676-0.488 1.183-1.108 1.164-0.62 0-1.070-0.507-1.070-1.164 0-2.235 0-4.488 0-6.723 0-0.601 0.282-0.864 0.883-0.864 2.235 0 4.469 0 6.685 0 0.676 0 1.183 0.451 1.183 1.089 0 0.62-0.488 1.089-1.164 1.089-1.127 0-2.235 0-3.361 0-0.113 0-0.244-0.038-0.3 0 5.089 5.089 10.16 10.16 15.268 15.249 0.056-0.038 0-0.169 0-0.282 0-1.127 0-2.235 0-3.361 0-0.695 0.451-1.183 1.070-1.202 0.639 0 1.108 0.488 1.108 1.202 0 2.216 0 4.432 0 6.667 0 0.62-0.263 0.901-0.883 0.901-2.254 0-4.507 0-6.761 0-0.582 0-1.014-0.394-1.108-0.958-0.075-0.488 0.244-0.995 0.732-1.183 0.15-0.056 0.3-0.056 0.469-0.056 1.108 0 2.216 0 3.324 0 0.113 0 0.244 0.038 0.3 0-5.089-5.089-10.16-10.16-15.249-15.249z"></path>
		</symbol>
		<symbol id="icon-bed" viewBox="0 0 45 32">
			<path d="M4.719 32h-2.898c-0.319-0.258-0.41-0.592-0.41-1.001 0.015-0.713 0-1.411 0-2.124 0-0.349-0.106-0.516-0.47-0.486-0.395 0.046-0.698-0.106-0.956-0.395v-3.642c0.228-0.243 0.47-0.41 0.819-0.41 0.592 0 0.592 0 0.592-0.622 0-1.715 0-3.414 0-5.128 0-1.472 0.926-2.64 2.367-2.913 0.455-0.091 0.546-0.258 0.546-0.683 0-3.793 0-7.602 0-11.395 0-1.715 0.668-2.655 2.306-3.217h31.742c1.639 0.561 2.306 1.502 2.306 3.217 0 3.778 0 7.571 0 11.349 0 0.425 0.076 0.637 0.546 0.728 1.426 0.273 2.352 1.441 2.352 2.913 0 1.73 0 3.459 0 5.174 0 0.44 0.121 0.592 0.561 0.577 0.622-0.015 0.88 0.258 0.895 0.88 0 0.85 0 1.699 0 2.549 0 0.743-0.228 0.986-0.956 0.986-0.379 0-0.501 0.152-0.501 0.516 0.015 0.698 0 1.396 0 2.094 0 0.41-0.091 0.743-0.41 1.001h-2.898c-0.288-0.228-0.41-0.546-0.47-0.895-0.121-0.668-0.258-1.335-0.395-2.003q-0.137-0.698-0.85-0.698c-10.712 0-21.424 0-32.152 0-0.091 0-0.182 0-0.273 0-0.319-0.030-0.455 0.106-0.516 0.425-0.137 0.759-0.303 1.517-0.44 2.276-0.061 0.349-0.182 0.668-0.47 0.91zM22.486 1.487c-4.946 0-9.878 0-14.824 0-1.29 0-1.821 0.531-1.821 1.821 0 3.702 0 7.389 0 11.091 0 0.85 0 0.835 0.835 0.85 0.41 0 0.577-0.121 0.561-0.546-0.030-0.804 0-1.608 0-2.413 0.015-1.578 1.29-2.868 2.868-2.868 2.944 0 5.887 0 8.846 0 1.593 0 2.853 1.29 2.883 2.898 0 0.698 0 1.396 0 2.094 0 0.835 0 0.819 0.85 0.835 0.425 0 0.546-0.167 0.531-0.561-0.030-0.804 0-1.608 0-2.413 0.015-1.548 1.29-2.837 2.837-2.853 2.959 0 5.918 0 8.891 0 1.578 0 2.837 1.29 2.853 2.868 0 0.819 0 1.639 0 2.458 0 0.152-0.046 0.349 0.121 0.41 0.349 0.152 0.728 0.106 1.062 0.030 0.288-0.061 0.197-0.379 0.197-0.592 0-3.763 0-7.511 0-11.274 0-1.35-0.516-1.851-1.881-1.851-4.931 0-9.847 0-14.779 0zM22.486 23.958c6.282 0 12.578 0 18.86 0q0.698 0 0.698-0.713c0-1.578 0-3.156 0-4.719 0-1.199-0.546-1.76-1.745-1.76-11.88 0-23.761 0-35.642 0-1.168 0-1.73 0.561-1.73 1.73 0 1.593 0 3.186 0 4.764q0 0.698 0.698 0.698c6.282 0 12.578 0 18.86 0zM22.426 26.872c6.767 0 13.534 0 20.317 0 0.152 0 0.303 0 0.455 0 0.137 0 0.258-0.061 0.273-0.197 0.046-0.349 0.121-0.713-0.030-1.032-0.137-0.303-0.486-0.152-0.743-0.152-13.474 0-26.963 0-40.436 0-0.152 0-0.303 0-0.455 0-0.106 0-0.228 0.030-0.273 0.137-0.106 0.349-0.121 0.728 0 1.077 0.091 0.288 0.425 0.167 0.637 0.167 6.752 0 13.504 0 20.271 0zM14.505 15.234c1.745 0 3.505 0 5.25 0 0.364 0 0.531-0.091 0.516-0.486-0.015-0.743 0-1.487 0-2.23-0.015-0.986-0.607-1.578-1.593-1.578-2.777 0-5.553 0-8.345 0-0.986 0-1.578 0.607-1.593 1.578 0 0.713 0.015 1.426 0 2.139-0.015 0.44 0.121 0.577 0.561 0.577 1.73-0.015 3.475 0 5.204 0zM30.452 15.234c1.73 0 3.475 0 5.204 0 0.425 0 0.607-0.106 0.592-0.561-0.030-0.713 0-1.426 0-2.139 0-1.017-0.607-1.608-1.624-1.608-2.761 0-5.523 0-8.3 0-1.017 0-1.608 0.592-1.624 1.608 0 0.713 0.015 1.426 0 2.139 0 0.41 0.121 0.561 0.546 0.561 1.73-0.015 3.475 0 5.204 0zM2.944 29.421c0 0.228 0 0.455 0 0.683 0 0.212 0.046 0.395 0.319 0.395 0.243 0 0.455 0 0.516-0.303 0.091-0.486 0.182-0.971 0.288-1.457 0.061-0.258-0.046-0.349-0.303-0.349-0.789-0.030-0.819-0.015-0.819 0.759 0 0.091 0 0.182 0 0.273zM42.060 29.481c-0.015-1.092 0.182-1.092-0.804-1.092-0.288 0-0.379 0.106-0.319 0.379 0.106 0.47 0.197 0.941 0.288 1.411 0.061 0.303 0.258 0.319 0.516 0.319s0.334-0.152 0.334-0.379c0-0.212 0-0.425 0-0.637z"></path>
		</symbol>
		<symbol id="icon-apartment" viewBox="0 0 32 32">
			<path d="M0 30.786v-0.809c0.248-0.626 0.666-1.057 1.37-1.162 0.496-0.065 0.483-0.078 0.483-0.587 0-0.235-0.104-0.313-0.326-0.3-0.222 0-0.431 0-0.653 0-0.392 0-0.705-0.144-0.874-0.509v-2.754c0.17-0.378 0.483-0.522 0.887-0.509 0.235 0 0.457 0 0.692 0 0.196 0 0.287-0.078 0.287-0.274 0-1.188 0-2.375 0-3.55 0-0.183-0.091-0.261-0.261-0.261-0.235 0-0.457 0-0.692 0-0.392 0-0.705-0.144-0.9-0.509v-2.806c0.209-0.339 0.522-0.483 0.927-0.457 0.183 0 0.378 0 0.561 0 0.287 0.026 0.378-0.104 0.378-0.378 0-0.94 0-1.892 0-2.832 0-0.927 0-0.94-0.94-0.927-0.405 0-0.705-0.117-0.914-0.47v-2.806c0.196-0.339 0.483-0.496 0.887-0.47 0.196 0.013 0.392 0 0.587 0 0.287 0.026 0.392-0.078 0.378-0.378-0.013-0.822 0-1.644 0-2.467 0-0.861 0-0.874-0.848-0.861-0.47 0-0.809-0.17-1.005-0.587v-1.684c0.196-0.431 0.535-0.587 1.005-0.587 2.545 0 5.077 0 7.622 0 0.731 0 0.679 0.078 0.666-0.679 0-0.522 0.144-0.94 0.639-1.175h12.111c0.483 0.235 0.679 0.626 0.639 1.148 0 0.117 0 0.235 0 0.339-0.026 0.261 0.078 0.378 0.352 0.365 0.431-0.013 0.848 0 1.279 0 2.232 0 4.476 0 6.708 0 0.626 0 0.953 0.339 0.966 0.966 0 0.326 0 0.639 0 0.966 0 0.574-0.339 0.914-0.914 0.927-0.235 0-0.457 0-0.692 0-0.183 0-0.274 0.065-0.274 0.248 0 1.057 0 2.127 0 3.184 0 0.183 0.091 0.261 0.261 0.261 0.287 0 0.587 0 0.874 0 0.431 0.013 0.718 0.3 0.731 0.731 0 0.744 0 1.501 0 2.245 0 0.457-0.3 0.731-0.757 0.744-0.287 0-0.561 0-0.848 0-0.183 0-0.274 0.065-0.274 0.248 0 1.214 0 2.414 0 3.628 0 0.183 0.078 0.261 0.261 0.261 0.261 0 0.522 0 0.783 0 0.535 0 0.822 0.3 0.822 0.835 0 0.679 0 1.357 0 2.036 0 0.587-0.261 0.861-0.848 0.901-0.248 0.013-0.496 0-0.744 0-0.196 0-0.287 0.091-0.287 0.287 0 1.175 0 2.349 0 3.524 0 0.222 0.104 0.3 0.3 0.287 0.261 0 0.522 0 0.783 0 0.509 0.026 0.783 0.313 0.783 0.822 0 0.692 0 1.396 0 2.088 0 0.535-0.287 0.835-0.822 0.848-0.261 0-0.522 0-0.783 0-0.091 0-0.183 0-0.248 0.104-0.17 0.3 0.013 0.718 0.339 0.77 0.065 0 0.117 0.013 0.183 0.026 0.94 0.17 1.527 1.096 1.253 2.023-0.209 0.731-0.809 1.148-1.657 1.148-9.514 0-19.028 0-28.542 0-0.927 0-1.396-0.326-1.749-1.214zM20.724 15.804c0-4.176 0-8.352 0-12.515 0-0.444 0-0.444-0.457-0.444-2.858 0-5.729 0-8.587 0-0.405 0-0.418 0.013-0.418 0.418 0 1.566 0 3.145 0 4.711 0 0.509-0.183 0.783-0.522 0.77-0.326 0-0.496-0.261-0.496-0.757 0-0.979 0-1.958 0-2.936 0-0.235-0.065-0.339-0.326-0.339-2.245 0-4.502 0-6.747 0-0.209 0-0.326 0.052-0.326 0.3 0 1.044 0 2.075 0 3.119 0 0.196 0.078 0.287 0.274 0.287 0.078 0 0.17 0 0.248 0 0.261 0.026 0.378-0.078 0.365-0.352-0.013-0.535 0-1.083 0-1.618 0-0.548 0.274-0.835 0.822-0.835 0.861 0 1.723 0 2.597 0 0.535 0 0.809 0.274 0.822 0.809 0 0.548 0 1.109 0 1.657 0 0.222 0.052 0.339 0.3 0.365 0.365 0.039 0.626 0.326 0.626 0.705 0 0.77 0.013 1.54 0 2.31 0 0.418-0.3 0.692-0.731 0.705-0.104 0-0.209 0-0.313 0-1.553 0-3.106 0-4.646 0-0.183 0-0.365 0-0.365 0.261 0 1.214 0 2.414 0 3.628 0 0.183 0.091 0.261 0.274 0.261 0.091 0 0.183 0 0.287 0 0.261 0.026 0.339-0.104 0.339-0.352 0-0.548 0-1.109 0-1.657 0-0.496 0.287-0.796 0.796-0.796 0.874 0 1.749 0 2.623 0 0.522 0 0.809 0.3 0.809 0.822 0 0.548 0 1.109 0 1.657 0 0.209 0.065 0.313 0.287 0.352 0.405 0.065 0.639 0.326 0.639 0.718 0 0.757 0 1.514 0 2.284 0 0.378-0.235 0.639-0.613 0.718-0.17 0.026-0.352 0.039-0.522 0.039-1.514 0-3.015 0-4.529 0-0.222 0-0.378 0.026-0.378 0.313 0 1.162 0 2.336 0 3.498 0 0.222 0.091 0.3 0.3 0.287 0.078 0 0.17 0 0.248 0 0.261 0.026 0.352-0.104 0.339-0.352 0-0.535 0-1.083 0-1.618 0-0.522 0.287-0.822 0.809-0.835 0.874-0.013 1.749-0.013 2.623 0 0.522 0 0.796 0.313 0.796 0.835 0 0.535 0 1.057 0 1.592 0 0.235 0.052 0.352 0.313 0.405 0.431 0.078 0.626 0.352 0.626 0.796 0 0.705 0 1.409 0 2.127 0 0.483-0.274 0.77-0.757 0.822-0.13 0-0.248 0-0.378 0-1.514 0-3.015 0-4.529 0-0.131 0-0.274-0.039-0.365 0.104-0.196 0.352 0.026 0.744 0.418 0.744 2.166 0 4.333 0 6.499 0 0.065 0 0.13 0 0.183 0 0.183 0 0.274-0.091 0.261-0.274 0-0.117 0-0.235 0-0.339 0-5.781 0-11.55 0-17.331 0-0.13 0-0.274 0-0.405 0.026-0.3 0.235-0.509 0.496-0.509s0.47 0.196 0.509 0.496c0.013 0.157 0.013 0.313 0.013 0.47 0 5.742 0 11.485 0 17.24 0 0.117 0 0.235 0 0.339 0 0.222 0.091 0.313 0.313 0.313 0.378 0 0.77 0 1.162 0 0.418 0 0.431-0.013 0.431-0.444 0-1.684 0-3.367 0-5.064 0-0.887 0.352-1.24 1.227-1.24 1.057 0 2.127 0 3.184 0 0.157 0 0.313 0.013 0.47 0.039 0.378 0.065 0.6 0.3 0.718 0.653 0.052 0.17 0.052 0.352 0.052 0.522 0 1.71 0 3.419 0 5.116 0 0.3 0.104 0.418 0.392 0.405 0.326-0.013 0.666 0 1.005 0q0.509 0 0.522-0.522c0-4.15 0-8.3 0-12.463zM21.755 16.744c0 0.887 0 1.775 0 2.649 0 2.989 0 5.977 0 8.966 0 0.235 0 0.431 0.326 0.431 2.245 0 4.502 0 6.747 0 0.365 0 0.313-0.235 0.326-0.47 0-0.235-0.026-0.405-0.326-0.392-0.509 0.013-1.018 0-1.527 0-1.096 0-2.179 0-3.276 0-0.639 0-0.914-0.287-0.914-0.914 0-0.679 0-1.357 0-2.036 0-0.457 0.196-0.718 0.626-0.796 0.261-0.052 0.313-0.17 0.313-0.405 0-0.535 0-1.057 0-1.592 0-0.522 0.274-0.822 0.796-0.835 0.874-0.013 1.749-0.013 2.623 0 0.522 0 0.809 0.313 0.809 0.835 0 0.535 0.013 1.083 0 1.618-0.013 0.352 0.183 0.352 0.431 0.352s0.47 0.026 0.47-0.352c-0.013-1.122-0.013-2.245 0-3.367 0-0.287-0.104-0.392-0.378-0.378-0.365 0-0.731 0.039-1.096-0.026-0.287-0.052-0.444-0.274-0.418-0.535 0.026-0.274 0.209-0.418 0.47-0.457 0.104 0 0.209 0 0.313 0 0.874 0 1.749 0 2.623 0 0.248 0 0.365-0.078 0.352-0.339-0.013-0.352 0-0.705 0-1.057 0-0.222-0.078-0.326-0.3-0.326-2.114 0-4.228 0-6.343 0-0.209 0-0.3 0.078-0.3 0.3 0 0.378 0 0.744 0 1.122 0 0.235 0.104 0.313 0.326 0.3 0.365 0 0.731 0 1.096 0 0.339 0 0.561 0.209 0.574 0.496 0 0.274-0.196 0.496-0.522 0.509-0.574 0.026-1.148 0.026-1.71 0-0.483-0.026-0.731-0.326-0.731-0.809 0-0.705 0-1.409 0-2.127 0-0.457 0.209-0.731 0.666-0.796 0.222-0.039 0.274-0.131 0.274-0.326 0-0.561 0-1.122 0-1.684 0-0.496 0.287-0.796 0.796-0.809 0.874 0 1.749 0 2.623 0 0.522 0 0.809 0.3 0.809 0.822 0 0.535 0.026 1.083 0 1.618-0.013 0.365 0.196 0.365 0.457 0.365 0.274 0 0.457 0 0.444-0.378-0.013-1.122 0-2.245 0-3.367 0-0.392 0-0.405-0.405-0.405-1.618 0-3.224 0-4.842 0-0.509 0-0.796-0.287-0.809-0.783 0-0.731 0-1.462 0-2.179 0-0.418 0.248-0.705 0.653-0.744 0.235-0.026 0.287-0.144 0.287-0.339 0-0.548 0-1.109 0-1.657 0-0.535 0.274-0.822 0.809-0.822 0.874 0 1.749 0 2.623 0 0.522 0 0.796 0.287 0.809 0.822 0 0.535 0.026 1.083 0 1.618-0.013 0.365 0.183 0.378 0.444 0.365 0.261 0 0.457 0 0.457-0.365-0.026-0.979 0-1.958 0-2.936 0-0.392 0-0.405-0.405-0.405-2.166 0-4.333 0-6.499 0q-0.483 0-0.483 0.483c0 3.85 0 7.7 0 11.55zM16.013 29.808c-0.405 0-0.809 0-1.214 0-4.346 0-8.705 0-13.051 0-0.47 0-0.757 0.235-0.757 0.6 0 0.352 0.287 0.587 0.744 0.6 0.026 0 0.065 0 0.091 0 9.449 0 18.897 0 28.346 0 0.131 0 0.274 0 0.405-0.052 0.287-0.091 0.431-0.3 0.431-0.587 0-0.274-0.222-0.509-0.509-0.561-0.144-0.026-0.287-0.013-0.431-0.013-4.685 0-9.37 0-14.055 0zM14.199 25.918c0 0.835 0 1.67 0 2.493 0 0.261 0.078 0.378 0.352 0.378 0.953 0 1.918 0 2.871 0 0.261 0 0.365-0.091 0.365-0.365 0-1.67 0-3.328 0-4.998 0-0.261-0.078-0.378-0.352-0.365-0.953 0-1.918 0.013-2.871 0-0.3 0-0.378 0.117-0.365 0.392 0 0.822 0 1.644 0 2.467zM4.398 11.158c1.057 0 2.101 0 3.158 0 0.248 0 0.365-0.078 0.352-0.339-0.013-0.378 0-0.744 0-1.122 0-0.209-0.065-0.3-0.287-0.3-2.127 0-4.241 0-6.369 0-0.222 0-0.287 0.104-0.287 0.313 0 0.339 0 0.666 0 1.005q0 0.457 0.444 0.457c1.005 0 1.997 0 3.002 0zM27.55 9.396c-1.057 0-2.101 0-3.158 0-0.235 0-0.352 0.078-0.339 0.326 0 0.378 0 0.744 0 1.122 0 0.222 0.065 0.326 0.3 0.326 2.114 0 4.228 0 6.343 0 0.235 0 0.313-0.104 0.3-0.326 0-0.365-0.013-0.731 0-1.096 0.013-0.274-0.104-0.352-0.365-0.352-1.031 0-2.062 0-3.093 0zM4.411 19.028c1.031 0 2.062 0 3.093 0 0.392 0 0.392 0 0.405-0.405 0-0.326 0-0.639 0-0.966 0-0.261-0.104-0.352-0.352-0.352-0.731 0-1.462 0-2.179 0-1.344 0-2.688 0-4.033 0-0.274 0-0.405 0.078-0.392 0.378 0.013 0.326 0.013 0.666 0 1.005-0.013 0.274 0.104 0.365 0.365 0.352 1.031 0 2.062 0 3.093 0zM4.411 26.897c1.057 0 2.101 0 3.158 0 0.235 0 0.352-0.065 0.339-0.326 0-0.365 0-0.731 0-1.096 0-0.209-0.065-0.313-0.287-0.313-2.127 0-4.241 0-6.369 0-0.222 0-0.3 0.091-0.287 0.3 0 0.339 0.013 0.692 0 1.031-0.026 0.313 0.104 0.392 0.405 0.392 1.018 0 2.036 0 3.054 0zM27.524 26.897c1.057 0 2.101 0 3.158 0 0.235 0 0.339-0.078 0.339-0.326 0-0.365 0-0.731 0-1.096 0-0.209-0.078-0.3-0.287-0.3-2.127 0-4.241 0-6.369 0-0.222 0-0.287 0.104-0.287 0.313 0 0.313 0 0.626 0 0.94 0 0.47 0 0.47 0.457 0.47 1.005 0 1.997 0 3.002 0zM15.987 1.853c1.762 0 3.511 0 5.272 0 0.378 0 0.392-0.013 0.392-0.444s0-0.444-0.405-0.444c-3.511 0-7.034 0-10.545 0-0.378 0-0.392 0.013-0.392 0.444s0 0.444 0.405 0.444c1.762 0 3.511 0 5.272 0zM26.349 3.732c1.422 0 2.845 0 4.281 0 0.117 0 0.261 0.039 0.326-0.065 0.131-0.222 0.078-0.47 0.039-0.692-0.039-0.17-0.222-0.131-0.352-0.131-2.832 0-5.664 0-8.483 0-0.392 0-0.405 0-0.405 0.431 0 0.444 0 0.457 0.418 0.457 1.396 0 2.793 0 4.176 0zM5.586 3.732c1.409 0 2.832 0 4.241 0 0.378 0 0.392-0.013 0.392-0.418 0-0.457 0-0.47-0.378-0.47-2.845 0-5.677 0-8.522 0-0.365 0-0.378 0-0.378 0.47 0 0.405 0 0.418 0.392 0.418 1.409 0 2.832 0 4.241 0zM5.834 8.418c0.274 0 0.561 0 0.835 0 0.222 0 0.3-0.091 0.287-0.3 0-0.418 0-0.835 0-1.24 0-0.196-0.078-0.287-0.274-0.287-0.574 0-1.135 0-1.71 0-0.196 0-0.274 0.091-0.274 0.287 0 0.418 0 0.835 0 1.24 0 0.209 0.078 0.3 0.287 0.3 0.274 0 0.561 0 0.835 0zM26.114 8.418c0.287 0 0.587 0 0.874 0 0.196 0 0.287-0.078 0.287-0.274 0-0.431 0-0.848 0-1.279 0-0.183-0.065-0.274-0.261-0.274-0.587 0-1.162 0-1.749 0-0.183 0-0.261 0.078-0.261 0.261 0 0.431 0 0.848 0 1.279 0 0.222 0.091 0.3 0.3 0.287 0.274 0 0.535 0 0.809 0zM5.834 16.287c0.274 0 0.561 0 0.835 0 0.183 0 0.3-0.065 0.287-0.274 0-0.418 0-0.835 0-1.24 0-0.209-0.104-0.274-0.287-0.274-0.561 0-1.122 0-1.684 0-0.183 0-0.287 0.065-0.287 0.274 0 0.418 0 0.835 0 1.24 0 0.209 0.104 0.274 0.287 0.274 0.274 0 0.561 0 0.835 0zM26.127 16.287c0.274 0 0.561 0 0.835 0 0.183 0 0.3-0.065 0.287-0.274 0-0.418 0-0.835 0-1.24 0-0.209-0.104-0.274-0.287-0.274-0.561 0-1.122 0-1.684 0-0.183 0-0.287 0.065-0.287 0.274 0 0.418 0 0.835 0 1.24 0 0.209 0.104 0.274 0.287 0.274 0.274 0 0.561 0 0.835 0zM5.847 22.382c-0.274 0-0.535 0-0.809 0-0.235 0-0.352 0.065-0.339 0.326 0 0.378 0 0.77 0 1.162 0 0.209 0.078 0.313 0.287 0.313 0.561 0 1.122 0 1.684 0 0.222 0 0.3-0.091 0.287-0.3 0-0.378 0-0.77 0-1.162 0-0.248-0.104-0.326-0.339-0.326-0.261 0-0.522 0-0.783 0zM26.101 24.157c0.287 0 0.561 0 0.848 0 0.209 0 0.313-0.065 0.313-0.287 0-0.405 0-0.809 0-1.214 0-0.196-0.091-0.274-0.287-0.274-0.561 0-1.122 0-1.684 0-0.209 0-0.3 0.091-0.287 0.3 0 0.392 0 0.796 0 1.188 0 0.222 0.091 0.3 0.3 0.3 0.274 0 0.535 0 0.809 0z"></path>
			<path d="M15.987 13.821c-1.057 0-2.127 0-3.184 0-0.522 0-0.705-0.17-0.705-0.679 0-0.796 0-1.579 0-2.375 0-0.509 0.17-0.679 0.666-0.679 2.14 0 4.281 0 6.421 0 0.496 0 0.666 0.17 0.666 0.679 0 0.796 0 1.579 0 2.375 0 0.522-0.17 0.679-0.705 0.679-1.057 0-2.127 0-3.184 0zM15.987 12.842c0.848 0 1.684 0 2.532 0 0.235 0 0.352-0.065 0.339-0.326 0-0.378 0-0.744 0-1.122 0-0.248-0.104-0.326-0.339-0.326-1.684 0-3.367 0-5.064 0-0.248 0-0.326 0.104-0.326 0.339 0 0.365 0 0.731 0 1.096 0 0.261 0.104 0.339 0.352 0.339 0.835 0 1.67 0 2.493 0z"></path>
			<path d="M15.974 8.209c-0.992 0-1.997 0-2.989 0-0.574 0-0.874-0.287-0.874-0.848 0-0.679 0-1.357 0-2.023 0-0.574 0.3-0.848 0.887-0.848 2.010 0 4.007 0 6.016 0 0.561 0 0.848 0.287 0.861 0.835 0 0.692 0 1.37 0 2.062 0 0.548-0.313 0.835-0.861 0.835-1.005 0-2.023 0-3.028 0zM15.974 7.23c0.848 0 1.684 0 2.532 0 0.248 0 0.339-0.091 0.326-0.326 0-0.378 0-0.77 0-1.162 0-0.196-0.078-0.287-0.287-0.287-1.723 0-3.432 0-5.155 0-0.196 0-0.287 0.091-0.287 0.287 0 0.378 0 0.744 0 1.122 0 0.274 0.091 0.365 0.365 0.365 0.835 0 1.67 0 2.493 0z"></path>
			<path d="M15.974 19.445c-0.992 0-1.997 0-2.989 0-0.574 0-0.861-0.287-0.874-0.861 0-0.679 0-1.357 0-2.023 0-0.561 0.3-0.848 0.861-0.848 2.023 0 4.033 0 6.055 0 0.548 0 0.848 0.287 0.861 0.848 0 0.679 0 1.357 0 2.023 0 0.574-0.3 0.861-0.874 0.861-1.005 0-2.023 0-3.028 0zM15.987 16.692c-0.848 0-1.684 0-2.532 0-0.248 0-0.339 0.091-0.326 0.326 0 0.378 0 0.77 0 1.162 0 0.196 0.078 0.287 0.287 0.287 1.723 0 3.432 0 5.155 0 0.196 0 0.287-0.091 0.287-0.287 0-0.378 0-0.744 0-1.122 0-0.274-0.091-0.365-0.365-0.365-0.835 0-1.67 0-2.493 0z"></path>
		</symbol>
		<symbol id="icon-size" viewBox="0 0 32 32">
			<path d="M26.742 32h-21.446s-0.131-0.038-0.188-0.056c-3.023-0.545-5.108-3.042-5.108-6.103 0-6.554 0-13.108 0-19.681 0-0.338 0-0.657 0.056-0.995 0.432-2.892 3.023-5.164 5.953-5.164 6.667 0 13.333 0 20.019 0 1.559 0 2.892 0.582 4.038 1.615 1.089 0.995 1.69 2.235 1.934 3.662v21.446c-0.225 1.277-0.732 2.423-1.653 3.38-0.995 1.052-2.216 1.634-3.606 1.878zM16.038 2.178c-3.268 0-6.535 0-9.784 0-2.31 0-4.075 1.728-4.075 4.038 0 6.535 0 13.052 0 19.587 0 2.272 1.728 4.038 4 4.038 6.554 0 13.089 0 19.643 0 2.254 0 4-1.746 4-4 0-6.554 0-13.089 0-19.643 0-0.845-0.244-1.653-0.751-2.347-0.826-1.127-1.953-1.653-3.324-1.653-3.249 0-6.479 0-9.728 0z"></path>
			<path d="M7.512 9.258s0 0.188 0 0.319c0 1.127 0 2.235 0 3.361 0 0.676-0.488 1.183-1.108 1.164-0.62 0-1.070-0.507-1.070-1.164 0-2.235 0-4.488 0-6.723 0-0.601 0.282-0.864 0.883-0.864 2.235 0 4.469 0 6.685 0 0.676 0 1.183 0.451 1.183 1.089 0 0.62-0.488 1.089-1.164 1.089-1.127 0-2.235 0-3.361 0-0.113 0-0.244-0.038-0.3 0 5.089 5.089 10.16 10.16 15.268 15.249 0.056-0.038 0-0.169 0-0.282 0-1.127 0-2.235 0-3.361 0-0.695 0.451-1.183 1.070-1.202 0.639 0 1.108 0.488 1.108 1.202 0 2.216 0 4.432 0 6.667 0 0.62-0.263 0.901-0.883 0.901-2.254 0-4.507 0-6.761 0-0.582 0-1.014-0.394-1.108-0.958-0.075-0.488 0.244-0.995 0.732-1.183 0.15-0.056 0.3-0.056 0.469-0.056 1.108 0 2.216 0 3.324 0 0.113 0 0.244 0.038 0.3 0-5.089-5.089-10.16-10.16-15.249-15.249z"></path>
		</symbol>
		<symbol id="icon-location" viewBox="0 0 24 32">
			<path fill="#808080" style="fill: var(--color1, #808080)" d="M12.315 32h-0.625c-0.257-0.129-0.478-0.312-0.68-0.496-2.187-2.059-4.172-4.264-5.937-6.69-1.728-2.353-3.198-4.852-4.191-7.628-0.441-1.268-0.735-2.573-0.901-3.915 0-0.772 0-1.544 0-2.316 0.055-0.331 0.11-0.68 0.165-1.011 1.103-6.378 7.187-10.789 13.601-9.797 4.485 0.698 7.591 3.253 9.411 7.389 0.478 1.084 0.698 2.261 0.864 3.437v2.316c-0.037 0.312-0.092 0.643-0.129 0.956-0.386 2.408-1.305 4.632-2.481 6.764-2.242 4.025-5.202 7.499-8.547 10.642-0.165 0.147-0.331 0.276-0.533 0.368zM18.619 12.039c0-3.676-2.922-6.617-6.598-6.617s-6.635 2.904-6.635 6.58c0 3.694 2.922 6.635 6.617 6.635 3.676 0 6.617-2.922 6.635-6.598z"></path>
		</symbol>
		<symbol id="icon-facebook" viewBox="0 0 15 32">
			<path fill="#a48671" style="fill: var(--color1, #a48671)" d="M9.85 24.038c0 2.485 0 4.97 0 7.455 0 0.499-0.005 0.505-0.513 0.505-1.889 0-3.776 0-5.664 0-0.515 0-0.52-0.006-0.52-0.54 0-4.945 0-9.892 0-14.837q0-0.56-0.56-0.56c-0.719 0-1.438-0.010-2.156 0.004-0.304 0.006-0.438-0.083-0.436-0.414 0.012-1.632 0.011-3.264 0-4.896-0.002-0.313 0.095-0.435 0.419-0.427 0.791 0.017 1.583-0.002 2.376 0.010 0.271 0.004 0.363-0.093 0.36-0.361-0.010-1.096-0.024-2.194 0.002-3.289 0.042-1.708 0.444-3.302 1.589-4.636 1.003-1.172 2.317-1.76 3.814-1.947 1.564-0.195 3.139-0.046 4.708-0.081 0.414-0.009 0.829 0.005 1.243 0 0.214-0.002 0.306 0.087 0.306 0.305-0.004 1.644-0.005 3.289 0 4.933 0 0.26-0.142 0.295-0.349 0.294-0.95-0.004-1.901-0.005-2.851 0.002-0.242 0.002-0.487 0.026-0.726 0.065-0.525 0.087-0.908 0.47-0.974 0.999-0.142 1.152-0.043 2.312-0.066 3.468-0.005 0.261 0.183 0.242 0.356 0.242 1.157 0 2.315 0 3.472 0 0.281 0 0.562 0.012 0.84-0.002 0.293-0.016 0.393 0.109 0.364 0.391-0.085 0.798-0.159 1.598-0.242 2.396-0.085 0.823-0.201 1.643-0.255 2.467-0.026 0.394-0.183 0.488-0.543 0.483-1.194-0.016-2.388 0.004-3.582-0.012-0.317-0.004-0.421 0.096-0.42 0.418 0.011 2.522 0.006 5.043 0.006 7.565z"></path>
		</symbol>
		<symbol id="icon-instagram" viewBox="0 0 32 32">
			<path fill="#a48671" style="fill: var(--color1, #a48671)" d="M15.988 0.015c2.338 0 4.677-0.038 7.013 0.011 2.143 0.044 4.117 0.658 5.784 2.067 1.91 1.614 2.902 3.704 3.147 6.175 0.072 0.735 0.059 1.469 0.059 2.204 0.002 4.141 0.016 8.283-0.008 12.424-0.010 1.76-0.423 3.436-1.358 4.949-1.391 2.251-3.467 3.477-6.027 3.959-0.818 0.153-1.647 0.194-2.478 0.194-4.189 0-8.377 0.008-12.566-0.003-1.681-0.005-3.306-0.295-4.807-1.095-2.525-1.345-4.001-3.461-4.538-6.249-0.162-0.831-0.207-1.672-0.207-2.516 0.002-4.213-0.005-8.425 0.005-12.638 0.003-1.533 0.24-3.026 0.89-4.43 1.252-2.7 3.402-4.247 6.282-4.842 0.757-0.155 1.525-0.219 2.298-0.217 2.171 0.005 4.344 0.002 6.515 0.002v0.003zM3.085 15.991s-0.010 0-0.013 0c0 2.135 0 4.27 0 6.406 0 0.521 0 1.043 0.088 1.561 0.348 2.063 1.381 3.611 3.355 4.442 0.93 0.392 1.91 0.534 2.919 0.532 4.378-0.008 8.755-0.003 13.133-0.003 0.439 0 0.877-0.011 1.312-0.082 2.124-0.348 3.727-1.405 4.633-3.404 0.42-0.924 0.553-1.902 0.552-2.912-0.008-4.354-0.003-8.707-0.005-13.063 0-0.462-0.003-0.924-0.091-1.383-0.413-2.15-1.5-3.768-3.604-4.584-0.85-0.33-1.743-0.455-2.649-0.457-4.331-0.008-8.66-0.002-12.991-0.007-0.607 0-1.21 0.038-1.805 0.145-1.662 0.302-3.036 1.056-3.934 2.542-0.558 0.924-0.875 1.931-0.888 3.002-0.028 2.419-0.008 4.84-0.008 7.261z"></path>
			<path fill="#a48671" style="fill: var(--color1, #a48671)" d="M15.999 24.189c-4.597 0-8.232-3.652-8.262-8.244-0.029-4.29 3.433-8.291 8.288-8.278 4.603 0.013 8.252 3.733 8.242 8.267-0.011 4.925-4.076 8.324-8.268 8.255zM16.007 10.717c-2.878-0.002-5.225 2.323-5.232 5.183-0.007 2.894 2.326 5.253 5.199 5.258 2.904 0.005 5.235-2.313 5.242-5.209 0.007-2.904-2.31-5.23-5.209-5.232z"></path>
			<path fill="#a48671" style="fill: var(--color1, #a48671)" d="M26.443 7.54c-0.007 1.032-0.86 1.885-1.884 1.884-1.045-0.002-1.939-0.906-1.92-1.939 0.021-1.045 0.877-1.864 1.939-1.858 1.066 0.007 1.871 0.833 1.864 1.913z"></path>
		</symbol>
		<symbol id="icon-linkedin" viewBox="0 0 33 32">
			<path fill="#a48671" style="fill: var(--color1, #a48671)" d="M18.805 13.144c0.563-0.646 1.079-1.278 1.735-1.786 1.583-1.225 3.402-1.599 5.349-1.463 1.561 0.108 3.016 0.553 4.278 1.516 1.628 1.242 2.502 2.943 2.951 4.895 0.217 0.943 0.333 1.9 0.331 2.873-0.002 4.091 0 8.185 0 12.276 0 0.534-0.002 0.538-0.522 0.538-2.065 0-4.131-0.008-6.198 0.008-0.382 0.002-0.498-0.118-0.496-0.498 0.012-3.589 0.016-7.177 0-10.766-0.004-0.886-0.045-1.774-0.311-2.632-0.358-1.156-1.006-2.042-2.239-2.363-2.465-0.64-4.838 1.114-4.865 3.664-0.041 3.932-0.016 7.866-0.020 11.799 0 0.146-0.004 0.291 0 0.437 0.006 0.246-0.102 0.354-0.358 0.354-2.172-0.006-4.343-0.006-6.515 0-0.264 0-0.404-0.087-0.38-0.366 0.008-0.104 0-0.213 0-0.317 0-6.806 0-13.613 0-20.419 0-0.516 0.008-0.528 0.537-0.528 2.054 0 4.105 0 6.159 0 0.532 0 0.557 0.028 0.559 0.563 0.002 0.74 0 1.479 0 2.219z"></path>
			<path fill="#a48671" style="fill: var(--color1, #a48671)" d="M0.427 21.161c0-3.402 0-6.802 0-10.205 0-0.579 0.010-0.593 0.563-0.593 2.052-0.002 4.103-0.002 6.155 0 0.512 0 0.541 0.031 0.541 0.539 0 6.856 0 13.713 0 20.569 0 0.508-0.016 0.522-0.547 0.522-2.052 0-4.103 0-6.155 0-0.553 0-0.557-0.002-0.557-0.547 0-3.428 0-6.856 0-10.285z"></path>
			<path fill="#a48671" style="fill: var(--color1, #a48671)" d="M4.093 7.521c-2.030 0-3.546-1.087-3.971-2.8-0.543-2.187 0.788-4.223 3.030-4.627 1.219-0.219 2.38-0.075 3.424 0.63 1.201 0.809 1.796 2.386 1.485 3.845-0.319 1.496-1.471 2.579-3.046 2.869-0.327 0.059-0.654 0.1-0.921 0.085z"></path>
		</symbol>
		<symbol id="icon-quote" viewBox="0 0 41 32">
			<path d="M9.933 32c-1.881 0-3.433-0.367-4.657-1.101s-2.248-1.713-3.066-2.944c-0.902-1.308-1.491-2.776-1.782-4.412-0.283-1.636-0.428-3.104-0.428-4.412 0-4.007 1.025-7.685 3.066-11.034 2.042-3.357 5.23-6.056 9.566-8.098l1.101 2.21c-2.454 1.063-4.58 2.699-6.377 4.901-1.797 2.21-2.776 4.458-2.944 6.744-0.084 1.223 0 2.37 0.245 3.433 1.468-1.392 3.265-2.087 5.398-2.087 2.37 0 4.374 0.734 6.010 2.21 1.636 1.468 2.454 3.517 2.454 6.132s-0.841 4.58-2.516 6.132c-1.675 1.552-3.701 2.332-6.071 2.332zM32.252 32c-1.881 0-3.433-0.367-4.657-1.101s-2.248-1.713-3.066-2.944c-0.902-1.308-1.491-2.776-1.774-4.412-0.291-1.636-0.428-3.104-0.428-4.412 0-4.007 1.017-7.685 3.066-11.034 2.042-3.349 5.23-6.048 9.566-8.090l1.101 2.21c-2.454 1.063-4.58 2.699-6.377 4.901-1.797 2.21-2.783 4.458-2.944 6.744-0.084 1.223 0 2.37 0.245 3.433 1.468-1.392 3.273-2.087 5.398-2.087 2.37 0 4.374 0.734 6.010 2.21s2.454 3.517 2.454 6.132-0.841 4.58-2.516 6.132c-1.675 1.552-3.701 2.332-6.071 2.332z"></path>
		</symbol>
		<symbol id="icon-user" viewBox="0 0 32 32">
			<path d="M31.994 16.018c0 8.851-7.137 15.959-15.994 15.982-8.798 0.024-16.018-7.208-16-16.030 0.018-8.78 7.226-15.982 16.030-15.97 8.774 0.012 16.030 7.208 15.965 16.018zM1.335 15.994c0.077 8.165 6.499 14.647 14.653 14.659 8.148 0.012 14.671-6.464 14.659-14.677-0.012-8.095-6.44-14.612-14.635-14.617-8.136-0.006-14.582 6.452-14.677 14.635z"></path>
			<path d="M20.733 11.716c-0.095 2.245-0.579 4.366-2.032 6.168-1.359 1.678-3.451 1.808-5.028 0.331-1.312-1.229-1.849-2.824-2.222-4.502-0.219-0.987-0.343-1.991-0.189-3.007 0.354-2.375 1.82-3.699 4.23-3.805 1.241-0.059 2.417 0.165 3.456 0.869 1.17 0.786 1.696 1.938 1.784 3.315 0.012 0.213 0 0.425 0 0.638zM12.573 11.468c0 1.518 0.337 2.789 0.839 4.018 0.325 0.786 0.792 1.477 1.489 1.985 0.461 0.337 0.969 0.455 1.542 0.366 0.632-0.1 1.004-0.538 1.341-0.993 1.223-1.637 1.666-3.533 1.601-5.524-0.059-1.666-0.809-2.523-2.292-2.919-0.88-0.23-1.767-0.219-2.641 0.041-0.839 0.248-1.388 0.798-1.672 1.631-0.171 0.514-0.225 1.040-0.213 1.394z"></path>
			<path d="M26.162 24.408c0 0.266 0.077 0.526 0.006 0.792-0.089 0.337-0.378 0.585-0.691 0.538-0.349-0.047-0.603-0.242-0.626-0.614-0.024-0.425-0.041-0.851-0.083-1.27-0.047-0.479-0.248-0.792-0.733-0.916-1.453-0.372-2.907-0.75-4.36-1.134-0.254-0.065-0.396 0.065-0.549 0.225-0.804 0.815-1.607 1.631-2.411 2.44-0.52 0.526-0.809 0.526-1.329-0.012-0.798-0.821-1.589-1.643-2.375-2.476-0.154-0.165-0.301-0.225-0.526-0.171-1.442 0.366-2.889 0.721-4.331 1.099-0.709 0.189-0.845 0.384-0.934 1.105-0.041 0.343-0.059 0.685-0.071 1.034-0.012 0.431-0.278 0.697-0.662 0.709-0.372 0.012-0.709-0.307-0.685-0.727 0.024-0.532 0-1.064 0.124-1.589 0.201-0.857 0.674-1.477 1.53-1.731 1.773-0.526 3.58-0.922 5.371-1.371 0.325-0.083 0.561 0.095 0.768 0.319 0.715 0.75 1.448 1.489 2.151 2.251 0.236 0.254 0.384 0.278 0.632 0.012 0.709-0.756 1.448-1.489 2.162-2.239 0.284-0.301 0.585-0.408 0.999-0.295 1.513 0.408 3.037 0.774 4.555 1.182 1.501 0.402 2.027 1.099 2.062 2.659 0 0.065 0 0.136 0 0.201z"></path>
		</symbol>
		<symbol id="icon-filter" viewBox="0 0 31 32">
			<path fill="#fff" style="fill: var(--color1, #fff)" d="M0 4.823c0.236-0.662 0.733-0.887 1.407-0.875 4.977 0 9.942 0 14.918 0.012 0.343 0 0.497-0.095 0.603-0.437 0.662-2.116 2.601-3.523 4.811-3.523 2.234 0 4.161 1.407 4.835 3.546 0.095 0.319 0.236 0.414 0.556 0.402 0.827-0.024 1.667 0 2.494 0 0.296 0 0.579 0.035 0.816 0.225 0.402 0.296 0.556 0.757 0.414 1.206-0.142 0.473-0.544 0.78-1.076 0.792-0.898 0.012-1.797 0.012-2.695 0-0.296 0-0.426 0.071-0.508 0.366-0.65 2.128-2.565 3.605-4.799 3.605-2.293 0-4.185-1.419-4.858-3.523-0.118-0.378-0.296-0.461-0.65-0.461-4.977 0-9.942 0-14.918 0.012-0.674 0-1.135-0.248-1.359-0.887v-0.461zM24.588 5.213c0.118-1.572-1.064-2.908-2.766-3.003-1.501-0.083-2.802 1.028-2.943 2.624-0.142 1.584 1.076 2.979 2.648 3.097 1.584 0.118 2.932-1.088 3.050-2.719z"></path>
			<path fill="#fff" style="fill: var(--color1, #fff)" d="M0 26.74c0.225-0.65 0.686-0.887 1.359-0.887 4.989 0 9.989 0 14.977 0.012 0.331 0 0.473-0.095 0.579-0.414 0.65-2.104 2.589-3.558 4.799-3.558 2.352 0 4.244 1.513 4.87 3.594 0.083 0.284 0.213 0.378 0.508 0.378 0.887-0.024 1.773-0.012 2.66 0 0.851 0.012 1.407 0.792 1.076 1.525-0.225 0.497-0.638 0.686-1.158 0.686-0.887 0-1.773 0-2.66 0-0.201 0-0.319 0.047-0.39 0.26-0.627 1.974-1.95 3.168-3.972 3.617-0.047 0-0.083 0.024-0.13 0.047h-1.537c-0.13-0.035-0.26-0.071-0.39-0.106-1.832-0.473-3.062-1.596-3.676-3.369-0.118-0.355-0.272-0.449-0.627-0.449-4.977 0-9.953 0-14.93 0-0.662 0-1.135-0.248-1.371-0.875v-0.461zM24.6 26.964c0-1.596-1.288-2.873-2.884-2.873-1.56 0-2.849 1.3-2.849 2.884 0 1.549 1.277 2.837 2.837 2.861 1.572 0.024 2.896-1.288 2.884-2.873z"></path>
			<path fill="#fff" style="fill: var(--color1, #fff)" d="M0 15.746c0.248-0.603 0.697-0.863 1.359-0.827 0.839 0.035 1.69 0 2.53 0.012 0.248 0 0.343-0.083 0.414-0.319 0.627-2.163 2.601-3.665 4.811-3.676 2.246-0.012 4.244 1.442 4.894 3.605 0.095 0.307 0.225 0.39 0.532 0.39 5.048 0 10.095 0 15.155 0 0.65 0 1.064 0.307 1.194 0.887 0.13 0.603-0.331 1.229-0.946 1.289-0.142 0.012-0.284 0-0.437 0-4.977 0-9.942 0-14.918 0-0.331 0-0.485 0.071-0.579 0.414-0.686 2.222-2.766 3.676-5.083 3.582-2.092-0.083-4.019-1.584-4.598-3.605-0.095-0.319-0.225-0.39-0.532-0.39-0.827 0.024-1.667 0-2.494 0-0.745 0-1.040-0.201-1.3-0.887v-0.461zM6.324 16.018c0 1.608 1.241 2.849 2.837 2.849s2.873-1.265 2.873-2.837c0-1.608-1.265-2.873-2.873-2.873s-2.837 1.253-2.837 2.849z"></path>
		</symbol>
	</defs>
</svg>
